<?xml version="1.0" encoding="utf-8"?>
<!-- Generator: Adobe Illustrator 15.1.0, SVG Export Plug-In . SVG Version: 6.00 Build 0)  -->
<!DOCTYPE svg PUBLIC "-//W3C//DTD SVG 1.1//EN" "http://www.w3.org/Graphics/SVG/1.1/DTD/svg11.dtd">
<svg version="1.1" id="Layer_1" xmlns="http://www.w3.org/2000/svg" xmlns:xlink="http://www.w3.org/1999/xlink" x="0px" y="0px"
	 width="800px" height="600px" viewBox="0 0 800 600" enable-background="new 0 0 800 600" xml:space="preserve">
<path fill-rule="evenodd" clip-rule="evenodd" fill="#D7F5FF" stroke="#000000" stroke-width="0.75" stroke-miterlimit="10" d="
	M470.088,456.734l-0.914-6.927l11.139-10.604l5.733-2.788l6.427-11.467l6.786-10.087l5.041-11.994l9.729-16.52l6.962-17.213
	l-1.559-7.302L509,349.841l-6.259-2.086L491.6,332.103l1.922-7.122l4.518-6.267l-0.525-7.125l-7.293-5.041l-2.613-5.569
	l-0.344-8.866l1.906-2.251l-2.089-4.525l-5.896-1.043l-3.142-4.002V272.3l3.307-4.354l-4.7-1.214l-0.165-4.176l1.038-15.641
	l4.352-1.043l-10.775-25.04l-9.927-18.252l-2.087-6.786l-5.73-6.253l4.004-11.475l4.865-7.821l2.266-7.129l-2.955-2.787
	l-10.961-6.958l-1.907-4.517l-3.659-5.563l-6.605-3.654l-3.304-0.519l-4.175-10.952l-3.301-4l1.742-8.171l1.049-6.435l-3.872-1.298
	l3.919-2.702l6.365-2.529l-0.87-10.035l4.261-6.718l0.795-4.977l-4.787-5.058l-1.394-3.926l-8.018-0.871l-5.225-1.914l-3.409-3.49
	l-5.851-7.422l-4.521-3.13l-10.25,0.173l-4.008,4.353l0.359,2.079l-3.666,0.871l-6.258-1.216l-5.044,2.259l0.345,2.786l-3.81,5.216
	l-2.793,1.741l2.269,3.647l-1.562,3.829l-1.22,12.339l2.254,7.303l1.741,4.172l-1.741,3.131l-4.175,2.784l-4.173-0.353l-3.813,3.654
	l-3.135,1.736l-2.779,5.214l-5.389-0.869l-8-5.563l-5.044-0.173l-3.303,3.483l-5.914,5.734l-11.303-0.346l-6.771-2.784l-3.831-5.216
	l-1.918-5.043l-10.254-8.347l-3.647-5.39l-4.517-0.697l-3.306,2.784l-0.869,4.173l1.382,3.647l-1.639,1.075l-2.021-0.999
	l-0.996,1.448l3.966,4.744l6.259,3.124l8.509,9.913l6.276,4.693l9.382,0.697l3.647,2.258l3.303,0.872l4.7,5.389l1.741,4.519
	l2.086,0.345l1.741-0.517l4.155,5.734l3.306,0.352l2.266,3.475l-1.771,4.354l1.308,6.98l-2.18,5.494l0.527,4.797l6.346,0.435
	l1.489,5.584l-2.266,3.58l0.777,6.628l2.705,3.925l1.592,8.646l-1.217,3.994l1.037,3.656v9.389l-1.561,3.474l2.43,6.952l4.517,1.567
	l4.175,8.865l2.703,2.92l-0.257,5.238l1.636,1.809l4.579,0.183l4.369,4.555h9.126l6.202,6.026l-3.468,1.644l2.372,3.289l0.377,7.293
	l-1.652,1.467l7.295,6.748l-5.283-1.097l-2.012,0.733l6.217,5.106l0.176,2.917l-7.295-4.008l-6.034,0.181l-6.38,4.195l0.18,3.827
	l-4.384,4.574v3.275l-1.994,1.465l-7.49,7.844l-1.096,7.844l-1.818,0.557l-1.276-2.381l-2.189,0.377l1.633,4.735l-1.096,3.834
	l-4.923,0.548l-2.926,4.007l1.279,6.028l3.286,2.382l-5.84-1.833l-1.636-2.192l-3.289,1.278l-1.829,5.109l0.733,2.372l-3.288-1.456
	l-1.276,1.824l3.273,3.259l0.077,2.272l-2.899,3.091l-1.364,2.734l-4.281,2.731l-2.28-1.642l-0.536-1.727l-3.188-1.008l-3.271,1.185
	l1.173,4.369l-2.717,2.272l1.903,4.55l-1.814,4.46l-2.281,0.549l-2.357,4.001l1.815,4.823l1.261,0.999l-1.438,4.738l0.898,3.182
	l3.091-1.458l2.552,2.731l-0.807,5.187l-1.279,2.545l1.638,4.55l-1.007,2.092l4.714,7.761l2.372,2.014l-1.635,2.92l3.645,5.65
	l-3.468,1.461l0.737,7.485l-1.65,2.923l-0.183,9.847l2.734,3.474l-2.552,5.293v3.645l1.833,2.551l6.379-2.917l2.372,1.83l1.096-2.92
	l5.478,5.84l3.288-0.547l3.289,2.911l6.933-0.719l1.998,0.912l-1.815,3.466h2.549l5.843-4.019v3.288l-2.915,4.016l6.021,8.572
	l1.275,2.928l-1.65,4.921l1.65,0.919l2.552-7.124l2.911-1.455l0.557,3.1l4.188-1.826l3.471-0.178l7.85-5.664h4.381l9.488-6.205
	l0.557-2.552l6.197,1.824l4.204-0.729l3.827-5.84l0.917,2.005l-2.01,4.019l2.55,1.094l2.551-5.837l2.192,0.544l-1.995-4.929
	l1.995-2.004l2.372,4.743l2.749,0.546l1.078-3.469l2.39,5.293l3.091-1.087l0.375-3.285l2.73,0.725l1.097,2.561l3.108-2.927
	l6.199-1.279l3.468,3.101l7.476-1.087l0.554-2.561l-2.009-2.005l2.189-1.273l3.288,1.086l0.722,2.923l4.744,1.271
	C468.185,460.771,469.145,458.364,470.088,456.734L470.088,456.734z M379.947,281.104l-1.832,2.263l-4.188-0.351l-3.303-4.712
	l4.517-3.223l7.328,1.134l-0.436,2.089l-4.267,0.178L379.947,281.104L379.947,281.104z M312.095,349.758l0.525-3.146l2.867,2.446
	l-1.903,2.006L312.095,349.758L312.095,349.758z M310.009,352.622l2.868,2.366l3.046-1.487l-0.437,4.01l-4.26,2.448l-2.705-3.317
	L310.009,352.622L310.009,352.622z M359.997,479.461l0.961,3.675l-3.138,2.093l-1.739-2.093l2.266-1.309L359.997,479.461
	L359.997,479.461z M353.555,474.061c0,0.088,1.382,3.4,1.382,3.4l-1.906,0.441L353.555,474.061L353.555,474.061z M343.712,469.346
	l7.398-1.479l-0.524,2.794l-4.355,3.487l-3.392-1.921L343.712,469.346L343.712,469.346z M333.788,461.329l4.953,4.269l-2.956,1.921
	l-1.997-2.273V461.329L333.788,461.329z M322.888,463.335l4.535,0.607l-2.702,1.132C324.721,465.074,322.8,463.244,322.888,463.335
	L322.888,463.335z M290.842,470.307l5.581,1.921l1.382-2.187l-3.648-2.348l0.074-3.663l2.537-0.263l7.146,4.889l0.692,3.66
	l-3.392-0.525l-1.667,1.833l2.537,4.105l3.559-0.352l1.052,4.185l-3.306,1.826l-3.919-3.748l-4.8-1.567l-2.69-3.229l-2.97-2.091
	L290.842,470.307z"/>
<rect x="375" y="327" fill-rule="evenodd" clip-rule="evenodd" fill="none" width="110" height="36"/>
<text transform="matrix(1 0 0 1 375 345.6152)" font-family="'Arial-BoldMT'" font-size="26">SUOMI</text>
</svg>
